<svg xmlns="http://www.w3.org/2000/svg" width="150.516" height="26.496" viewBox="0 0 150.516 26.496"><defs><style>.a{fill:#141414;}</style></defs><path class="a" d="M19.512-17.1c0-2.376-.5-8.748-9.036-8.748S1.44-19.476,1.44-17.1v9c0,2.376.5,8.748,9.036,8.748S19.512-5.724,19.512-8.1ZM13.32-10.008c0,2.772-.18,4.464-2.844,4.464S7.632-7.236,7.632-10.008v-5.184c0-2.772.18-4.464,2.844-4.464s2.844,1.692,2.844,4.464ZM27.864-25.2a.955.955,0,0,1,1.08,1.08V-7.272a.985.985,0,0,0,1.08,1.08h8.028a.955.955,0,0,1,1.08,1.08V-1.08A.955.955,0,0,1,38.052,0H23.832a.985.985,0,0,1-1.08-1.08V-24.12a.969.969,0,0,1,1.08-1.08Zm18.54,0a.955.955,0,0,1,1.08,1.08V-1.08A.969.969,0,0,1,46.4,0h-3.96a.985.985,0,0,1-1.08-1.08V-24.12a.969.969,0,0,1,1.08-1.08Zm8.748,0a1.111,1.111,0,0,1,1.188.936L59.508-10.44c.072.324.36.324.432,0l3.168-13.824A1.111,1.111,0,0,1,64.3-25.2H68.58a.859.859,0,0,1,.936,1.188L64.26-.936A1.111,1.111,0,0,1,63.072,0h-6.7a1.111,1.111,0,0,1-1.188-.936L49.932-24.012a.859.859,0,0,1,.936-1.188Zm33.012,0a.955.955,0,0,1,1.08,1.08v4.032a.969.969,0,0,1-1.08,1.08H79.452a.969.969,0,0,0-1.08,1.08v1.152a.985.985,0,0,0,1.08,1.08h5.58a.955.955,0,0,1,1.08,1.08v4.032a.969.969,0,0,1-1.08,1.08h-5.58a.969.969,0,0,0-1.08,1.08v1.152a.985.985,0,0,0,1.08,1.08h8.712a.955.955,0,0,1,1.08,1.08V-1.08A.955.955,0,0,1,88.164,0H73.044a.985.985,0,0,1-1.08-1.08V-24.12a.969.969,0,0,1,1.08-1.08ZM107.172-9.036a.381.381,0,0,1,.108-.468c1.908-1.368,2.736-3.708,2.736-7.056,0-5.9-2.592-8.64-9-8.64H93.132a1.078,1.078,0,0,0-1.116,1.116V-1.116A1.078,1.078,0,0,0,93.132,0h4.032A1.078,1.078,0,0,0,98.28-1.116V-6.8A1.078,1.078,0,0,1,99.4-7.92h1.44a.367.367,0,0,1,.288.18L104.868-.5a.878.878,0,0,0,.828.5h4.1a1.276,1.276,0,0,0,1.188-1.944Zm-5.94-9.972c1.728,0,2.592.216,2.592,2.448s-.864,2.448-2.592,2.448H99.4a1.078,1.078,0,0,1-1.116-1.116v-2.664A1.078,1.078,0,0,1,99.4-19.008Zm35.6,6.192a.432.432,0,0,1,0-.5L142.884-23.9c.432-.756.108-1.3-.72-1.3h-4.5a1.337,1.337,0,0,0-1.3.72l-2.952,5c-.144.252-.36.252-.5,0l-2.916-5a1.337,1.337,0,0,0-1.3-.72h-4.464c-.864,0-1.188.54-.756,1.3l6.12,10.4a.433.433,0,0,1,0,.5L122.688-1.3c-.432.756-.108,1.3.756,1.3h4.9a1.31,1.31,0,0,0,1.3-.756l3.456-6.012c.144-.252.324-.252.468,0L137.124-.72a1.337,1.337,0,0,0,1.3.72h4.464c.864,0,1.188-.54.756-1.3Zm14.04,6.624a.955.955,0,0,1,1.08,1.08V-1.08A.969.969,0,0,1,150.876,0h-4.032a.985.985,0,0,1-1.08-1.08V-5.112a.969.969,0,0,1,1.08-1.08Z" transform="translate(-1.44 25.848)"/></svg>